<svg width="233" height="108" viewBox="0 0 233 108" fill="none" xmlns="http://www.w3.org/2000/svg">
<g filter="url(#filter0_d_15_58)">
<path d="M4.04063 48.6768C4.32309 52.6711 5.51089 56.551 7.51568 60.0278C11.7409 67.3792 18.9865 72.7016 26.7903 75.8652C36.5399 79.8177 47.4081 79.9395 57.755 79.0582C67.3652 78.2396 76.8777 76.3422 86.5233 75.9511C93.9827 75.7146 101.45 75.8911 108.889 76.4796C123.323 77.4946 137.697 79.3777 151.978 81.6606C155.845 82.2713 159.705 82.9274 163.556 83.629C163.92 83.6608 164.28 83.7271 164.632 83.8269C164.701 83.8553 164.814 83.8331 164.878 83.873C164.994 83.9456 164.408 83.6891 164.763 83.9803C165.259 84.4952 165.701 85.0585 166.082 85.6614L171.356 92.3858C172.869 94.3142 174.272 96.657 176.227 98.177C177.606 99.2319 179.268 99.8589 181.006 99.9789C182.744 100.099 184.478 99.7064 185.991 98.8511C187.571 97.8619 188.831 96.4437 189.622 94.7652C190.835 92.5608 192.282 90.4911 193.939 88.5913C200.214 81.3391 208.935 76.8786 216.229 70.7766C219.762 67.942 222.778 64.5271 225.144 60.6811C227.162 57.2007 228.418 53.3378 228.827 49.3443C229.701 41.2346 227.189 32.9642 222.964 26.0651C218.368 18.6531 211.767 12.6666 203.909 8.78589C195.081 4.33029 185.312 2.15998 175.521 1.07846C165.124 -0.0698146 154.607 -0.0662351 144.161 0.0496945C132.436 0.178987 120.733 0.689773 109.052 1.58204C97.3539 2.47903 85.7023 3.75404 74.0969 5.40707C62.9609 6.99323 51.6889 8.64646 40.7884 11.4531C31.1588 13.9324 21.5562 17.8078 14.3654 24.8296C7.97181 31.073 3.52492 39.6166 4.04063 48.6768Z" fill="#F67669"/>
<path d="M57.8679 51.2566C57.3919 51.2354 56.9254 51.1167 56.4979 50.9081C56.0704 50.6995 55.6911 50.4055 55.3839 50.0446C55.0767 49.6837 54.8482 49.2637 54.7129 48.811C54.5776 48.3583 54.5383 47.8828 54.5976 47.4144L54.845 45.4846C54.8922 45.1144 54.848 44.7384 54.7162 44.389C54.5843 44.0395 54.3688 43.7269 54.0881 43.4782L52.625 42.183C52.1458 41.7589 51.796 41.2106 51.615 40.5998C51.4341 39.9891 51.4293 39.3404 51.6011 38.7271C51.773 38.1138 52.1146 37.5604 52.5874 37.1294C53.0602 36.6985 53.6452 36.4072 54.2764 36.2885L56.2053 35.9255C56.5751 35.856 56.9223 35.6985 57.2169 35.4666C57.5116 35.2346 57.745 34.9351 57.8969 34.594L58.6886 32.8128C58.9478 32.2305 59.3663 31.7317 59.8967 31.3727C60.4271 31.0136 61.0483 30.8088 61.6901 30.7812C62.3319 30.7537 62.9686 30.9045 63.5284 31.2167C64.0882 31.5288 64.5487 31.9899 64.8578 32.5478L65.8016 34.2529C65.9826 34.5803 66.2414 34.8591 66.5555 35.0653C66.8696 35.2716 67.2296 35.399 67.6044 35.4366L69.5572 35.632C70.1964 35.6961 70.8048 35.936 71.3135 36.3248C71.8222 36.7135 72.2109 37.2355 72.4358 37.8318C72.6606 38.428 72.7126 39.0747 72.5858 39.6987C72.459 40.3226 72.1584 40.899 71.7182 41.3626L70.3733 42.7791C70.1152 43.0505 69.9276 43.3801 69.8269 43.7394C69.7261 44.0988 69.7152 44.477 69.7951 44.8414L70.2101 46.7436C70.3459 47.3655 70.3033 48.0127 70.0873 48.6119C69.8713 49.2111 69.4903 49.7386 68.9875 50.1345C68.4848 50.5305 67.8802 50.7793 67.2422 50.8526C66.6042 50.926 65.9582 50.8211 65.3772 50.5498L63.6014 49.7209C63.261 49.5611 62.8863 49.4859 62.51 49.502C62.1336 49.518 61.7669 49.6247 61.4416 49.8128L59.7448 50.7917C59.1768 51.121 58.5255 51.2823 57.8679 51.2566Z" fill="white"/>
<path d="M85.5162 50.4611C84.6403 50.4211 83.8119 50.0547 83.197 49.4353C82.8255 49.0455 82.5484 48.577 82.3866 48.0653C82.2249 47.5537 82.1827 47.0123 82.2634 46.4821L82.4904 44.7115C82.5388 44.3345 82.4939 43.9514 82.3596 43.5954C82.2253 43.2394 82.0057 42.9211 81.7196 42.6678L80.3624 41.4663C79.9621 41.1278 79.643 40.7051 79.4284 40.2291C79.2138 39.753 79.109 39.2355 79.1218 38.7143C79.1514 37.9421 79.4449 37.2029 79.9542 36.6176C80.4634 36.0323 81.1582 35.6358 81.9247 35.493L83.8312 35.1342C84.2082 35.0633 84.5621 34.9026 84.8624 34.666C85.1628 34.4293 85.4005 34.1239 85.5551 33.776L86.2656 32.1776C86.5196 31.5709 86.9377 31.0454 87.4737 30.659C88.0098 30.2725 88.6431 30.0401 89.3039 29.9873C89.9516 29.9509 90.5964 30.0974 91.1632 30.4099C91.7301 30.7224 92.1958 31.1879 92.5061 31.7523L93.4389 33.4376C93.6236 33.7712 93.8874 34.0553 94.2076 34.2653C94.5277 34.4754 94.8947 34.6052 95.2768 34.6434L97.0866 34.8246C97.6116 34.8652 98.1208 35.0215 98.5771 35.2819C99.0333 35.5423 99.4252 35.9004 99.724 36.3299C100.158 36.9719 100.358 37.7407 100.293 38.5104C100.228 39.2801 99.9016 40.0052 99.3665 40.567L98.0373 41.9671C97.7746 42.2437 97.5838 42.5795 97.4812 42.9454C97.3785 43.3113 97.3672 43.6965 97.4482 44.0677L97.8313 45.8239C97.9541 46.3308 97.9618 46.8584 97.8538 47.3686C97.7457 47.8788 97.5247 48.3589 97.2067 48.7742C96.7262 49.3844 96.0501 49.814 95.29 49.9922C94.5298 50.1703 93.731 50.0864 93.0255 49.7543L91.268 48.9339C90.9214 48.7721 90.5402 48.6961 90.1573 48.7126C89.7744 48.7291 89.4014 48.8376 89.0702 49.0286L87.3931 49.9962C86.8251 50.3254 86.1738 50.4868 85.5162 50.4611Z" fill="white"/>
<path d="M113.236 50.345C112.76 50.3238 112.293 50.2051 111.866 49.9965C111.438 49.7879 111.059 49.4939 110.752 49.133C110.445 48.7721 110.216 48.3521 110.081 47.8994C109.946 47.4467 109.906 46.9712 109.966 46.5028L110.213 44.573C110.26 44.2028 110.216 43.8269 110.084 43.4774C109.952 43.1279 109.737 42.8153 109.456 42.5666L107.993 41.2714C107.514 40.8473 107.164 40.299 106.983 39.6883C106.802 39.0775 106.797 38.4288 106.969 37.8155C107.141 37.2022 107.483 36.6488 107.955 36.2178C108.428 35.7869 109.013 35.4956 109.644 35.3769L111.573 35.0139C111.943 34.9444 112.29 34.7869 112.585 34.555C112.88 34.323 113.113 34.0235 113.265 33.6824L114.057 31.9012C114.316 31.3189 114.734 30.8201 115.265 30.4611C115.795 30.1021 116.416 29.8972 117.058 29.8696C117.7 29.8421 118.337 29.9929 118.896 30.3051C119.456 30.6172 119.917 31.0783 120.226 31.6362L121.17 33.3413C121.351 33.6687 121.609 33.9475 121.923 34.1538C122.238 34.36 122.598 34.4874 122.973 34.5249L124.925 34.7204C125.564 34.7845 126.173 35.0244 126.682 35.4132C127.19 35.8019 127.579 36.3239 127.804 36.9202C128.029 37.5164 128.081 38.1631 127.954 38.7871C127.827 39.411 127.526 39.9874 127.086 40.451L125.741 41.8675C125.483 42.1389 125.296 42.4685 125.195 42.8278C125.094 43.1872 125.083 43.5654 125.163 43.9298L125.578 45.8319C125.714 46.4539 125.671 47.1011 125.455 47.7003C125.239 48.2995 124.858 48.8269 124.356 49.2229C123.853 49.6189 123.248 49.8676 122.61 49.941C121.972 50.0144 121.326 49.9095 120.745 49.6382L118.969 48.8093C118.629 48.6495 118.254 48.5743 117.878 48.5904C117.502 48.6064 117.135 48.7131 116.81 48.9012L115.113 49.8801C114.545 50.2094 113.894 50.3707 113.236 50.345Z" fill="white"/>
<path opacity="0.2" d="M140.198 49.6203C139.722 49.5991 139.256 49.4804 138.828 49.2719C138.401 49.0633 138.022 48.7693 137.714 48.4084C137.407 48.0474 137.179 47.6274 137.043 47.1747C136.908 46.7221 136.869 46.2465 136.928 45.7781L137.175 43.8483C137.223 43.4782 137.178 43.1022 137.047 42.7527C136.915 42.4032 136.699 42.0907 136.419 41.8419L134.955 40.5467C134.476 40.1227 134.126 39.5743 133.945 38.9636C133.765 38.3529 133.76 37.7041 133.932 37.0909C134.103 36.4776 134.445 35.9241 134.918 35.4932C135.391 35.0622 135.976 34.7709 136.607 34.6522L138.536 34.2893C138.906 34.2198 139.253 34.0623 139.547 33.8303C139.842 33.5983 140.075 33.2989 140.227 32.9577L141.019 31.1765C141.278 30.5942 141.697 30.0954 142.227 29.7364C142.758 29.3774 143.379 29.1725 144.021 29.145C144.662 29.1174 145.299 29.2682 145.859 29.5804C146.419 29.8926 146.879 30.3537 147.188 30.9115L148.132 32.6167C148.313 32.944 148.572 33.2229 148.886 33.4291C149.2 33.6353 149.56 33.7627 149.935 33.8003L151.888 33.9957C152.527 34.0598 153.135 34.2998 153.644 34.6885C154.153 35.0773 154.541 35.5993 154.766 36.1955C154.991 36.7918 155.043 37.4384 154.916 38.0624C154.789 38.6864 154.489 39.2627 154.049 39.7263L152.704 41.1428C152.446 41.4142 152.258 41.7438 152.157 42.1032C152.057 42.4625 152.046 42.8407 152.126 43.2052L152.54 45.1073C152.676 45.7292 152.634 46.3764 152.418 46.9756C152.202 47.5749 151.821 48.1023 151.318 48.4983C150.815 48.8943 150.211 49.143 149.573 49.2164C148.935 49.2898 148.289 49.1849 147.708 48.9136L145.932 48.0846C145.591 47.9248 145.217 47.8497 144.84 47.8657C144.464 47.8817 144.097 47.9884 143.772 48.1765L142.075 49.1554C141.507 49.4847 140.856 49.646 140.198 49.6203Z" fill="black"/>
<path opacity="0.2" d="M167.161 48.8956C166.685 48.8744 166.219 48.7558 165.791 48.5472C165.363 48.3386 164.984 48.0446 164.677 47.6837C164.37 47.3228 164.141 46.9027 164.006 46.4501C163.871 45.9974 163.831 45.5219 163.891 45.0534L164.138 43.1236C164.185 42.7535 164.141 42.3775 164.009 42.028C163.877 41.6785 163.662 41.366 163.381 41.1172L161.918 39.822C161.439 39.398 161.089 38.8496 160.908 38.2389C160.727 37.6282 160.722 36.9795 160.894 36.3662C161.066 35.7529 161.408 35.1994 161.88 34.7685C162.353 34.3375 162.938 34.0462 163.57 33.9275L165.498 33.5646C165.868 33.4951 166.215 33.3376 166.51 33.1056C166.805 32.8737 167.038 32.5742 167.19 32.233L167.982 30.4518C168.241 29.8695 168.659 29.3707 169.19 29.0117C169.72 28.6527 170.341 28.4478 170.983 28.4203C171.625 28.3927 172.262 28.5435 172.821 28.8557C173.381 29.1679 173.842 29.629 174.151 30.1868L175.095 31.892C175.276 32.2194 175.534 32.4982 175.849 32.7044C176.163 32.9106 176.523 33.038 176.898 33.0756L178.85 33.2711C179.489 33.3351 180.098 33.5751 180.607 33.9639C181.115 34.3526 181.504 34.8746 181.729 35.4709C181.954 36.0671 182.006 36.7138 181.879 37.3377C181.752 37.9617 181.451 38.5381 181.011 39.0017L179.666 40.4182C179.408 40.6896 179.221 41.0192 179.12 41.3785C179.019 41.7379 179.008 42.1161 179.088 42.4805L179.503 44.3826C179.639 45.0046 179.596 45.6517 179.38 46.251C179.164 46.8502 178.783 47.3776 178.281 47.7736C177.778 48.1696 177.173 48.4183 176.535 48.4917C175.897 48.5651 175.251 48.4602 174.67 48.1889L172.894 47.3599C172.554 47.2002 172.179 47.125 171.803 47.141C171.427 47.1571 171.06 47.2638 170.735 47.4519L169.038 48.4308C168.47 48.76 167.819 48.9214 167.161 48.8956Z" fill="black"/>
</g>
<defs>
<filter id="filter0_d_15_58" x="0" y="0" width="233" height="108" filterUnits="userSpaceOnUse" color-interpolation-filters="sRGB">
<feFlood flood-opacity="0" result="BackgroundImageFix"/>
<feColorMatrix in="SourceAlpha" type="matrix" values="0 0 0 0 0 0 0 0 0 0 0 0 0 0 0 0 0 0 127 0" result="hardAlpha"/>
<feOffset dy="4"/>
<feGaussianBlur stdDeviation="2"/>
<feComposite in2="hardAlpha" operator="out"/>
<feColorMatrix type="matrix" values="0 0 0 0 0 0 0 0 0 0 0 0 0 0 0 0 0 0 0.25 0"/>
<feBlend mode="normal" in2="BackgroundImageFix" result="effect1_dropShadow_15_58"/>
<feBlend mode="normal" in="SourceGraphic" in2="effect1_dropShadow_15_58" result="shape"/>
</filter>
</defs>
</svg>
